<?xml version="1.0" encoding="utf-8"?>
<!-- Generator: Adobe Illustrator 21.1.0, SVG Export Plug-In . SVG Version: 6.00 Build 0)  -->
<svg version="1.1" id="Layer_1" xmlns="http://www.w3.org/2000/svg" xmlns:xlink="http://www.w3.org/1999/xlink" x="0px" y="0px"
	 viewBox="0 0 64.3 26.2" style="enable-background:new 0 0 64.3 26.2;" xml:space="preserve">
<style type="text/css">
	.st0{fill:#10F9B7;}
	.st1{opacity:0.5;fill:#10F9B7;}
</style>
<g>
	<g>
		<path class="st0" d="M29,20.1c0,1.5-1.2,2.8-2.8,2.8H5.8c-1.5,0-2.8-1.2-2.8-2.8v-14c0-1.5,1.2-2.8,2.8-2.8h20.4
			c1.5,0,2.8,1.2,2.8,2.8V20.1z M27.4,6.1c0-0.6-0.5-1.2-1.2-1.2H5.8c-0.6,0-1.2,0.5-1.2,1.2v14c0,0.6,0.5,1.2,1.2,1.2h20.4
			c0.6,0,1.2-0.5,1.2-1.2C27.4,20.1,27.4,6.1,27.4,6.1z"/>
	</g>
	<g>
		<path class="st0" d="M23.8,21.7c-0.2,0-0.4-0.2-0.4-0.4v-1c0-0.9-0.8-1.8-1.6-1.8H10.2c-0.8,0-1.6,0.8-1.6,1.8v1
			c0,0.2-0.2,0.4-0.4,0.4s-0.4-0.2-0.4-0.4v-1c0-1.4,1.1-2.6,2.4-2.6h11.6c1.3,0,2.4,1.2,2.4,2.6v1C24.2,21.5,24,21.7,23.8,21.7z"/>
	</g>
	<g>
		<path class="st0" d="M20.7,15.7h-9.5c-2.3,0-4.2-1.8-4.2-4c0-0.2,0.2-0.4,0.4-0.4c0.2,0,0.4,0.2,0.4,0.4c0,1.8,1.5,3.2,3.4,3.2
			h9.5c1.9,0,3.4-1.3,3.4-3v-0.3c0-1.8-1.6-3.4-3.4-3.4h-9.5c-0.8,0-1.6,0.4-2,0.7C9,9,8.7,9,8.6,8.8C8.5,8.6,8.5,8.4,8.7,8.2
			c0.8-0.6,1.7-0.9,2.5-0.9h9.5c2.2,0,4.2,2,4.2,4.2v0.3C25,14.1,23.2,15.7,20.7,15.7z"/>
	</g>
	<g>
		<path class="st0" d="M7.6,10.8L7.6,10.8c-0.3-0.1-0.4-0.3-0.3-0.5c0.1-0.2,0.1-0.3,0.2-0.5c0-0.2,0.3-0.3,0.5-0.2s0.3,0.3,0.2,0.5
			C8.1,10.3,8,10.4,8,10.6C7.9,10.7,7.8,10.8,7.6,10.8z"/>
	</g>
	<g>
		<path class="st0" d="M11.8,14.2c-1.3,0-2.4-1.1-2.4-2.4s1.1-2.4,2.4-2.4s2.4,1.1,2.4,2.4S13.1,14.2,11.8,14.2z M11.8,10.2
			c-0.9,0-1.6,0.7-1.6,1.6c0,0.9,0.7,1.6,1.6,1.6c0.9,0,1.6-0.7,1.6-1.6C13.4,10.9,12.7,10.2,11.8,10.2z"/>
	</g>
	<g>
		<path class="st0" d="M20.6,14.2c-1.3,0-2.4-1.1-2.4-2.4s1.1-2.4,2.4-2.4s2.4,1.1,2.4,2.4S21.9,14.2,20.6,14.2z M20.6,10.2
			c-0.9,0-1.6,0.7-1.6,1.6c0,0.9,0.7,1.6,1.6,1.6s1.6-0.7,1.6-1.6S21.5,10.2,20.6,10.2z"/>
	</g>
</g>
<path class="st0" d="M59.3,25.6H38.7c-0.4,0-0.8-0.3-0.8-0.8V14.2c0-0.4,0.3-0.8,0.8-0.8H41V4.3c0-0.8,0.7-1.5,1.5-1.5h16.8
	c0.8,0,1.5,0.7,1.5,1.5v19.8C60.8,25,60.1,25.6,59.3,25.6z M39.5,24.1h19.8V4.3H42.5v16.8c0,0.4-0.3,0.8-0.8,0.8S41,21.5,41,21.1V15
	h-1.5V24.1z"/>
<g>
	<path class="st1" d="M57,18.8H45.6c-0.2,0-0.4,0.2-0.4,0.4s0.2,0.4,0.4,0.4H57c0.2,0,0.4-0.2,0.4-0.4S57.2,18.8,57,18.8z"/>
	<path class="st1" d="M57,16.5H45.6c-0.2,0-0.4,0.2-0.4,0.4c0,0.2,0.2,0.4,0.4,0.4H57c0.2,0,0.4-0.2,0.4-0.4
		C57.4,16.7,57.2,16.5,57,16.5z"/>
	<path class="st1" d="M57,14.2H45.6c-0.2,0-0.4,0.2-0.4,0.4s0.2,0.4,0.4,0.4H57c0.2,0,0.4-0.2,0.4-0.4S57.2,14.2,57,14.2z"/>
	<path class="st1" d="M57,11.9H45.6c-0.2,0-0.4,0.2-0.4,0.4c0,0.2,0.2,0.4,0.4,0.4H57c0.2,0,0.4-0.2,0.4-0.4
		C57.4,12.1,57.2,11.9,57,11.9z"/>
	<path class="st1" d="M57,9.6H45.6c-0.2,0-0.4,0.2-0.4,0.4c0,0.2,0.2,0.4,0.4,0.4H57c0.2,0,0.4-0.2,0.4-0.4
		C57.4,9.8,57.2,9.6,57,9.6z"/>
	<path class="st1" d="M45.6,8.1H57c0.2,0,0.4-0.2,0.4-0.4c0-0.2-0.2-0.4-0.4-0.4H45.6c-0.2,0-0.4,0.2-0.4,0.4
		C45.2,7.9,45.4,8.1,45.6,8.1z"/>
</g>
</svg>
