<svg xmlns="http://www.w3.org/2000/svg" xmlns:xlink="http://www.w3.org/1999/xlink" viewBox="0 0 149.34 189.21"><defs><style>.cls-1{fill:none;}.cls-2{isolation:isolate;}.cls-3{clip-path:url(#clip-path);}.cls-4{fill:#996c99;}.cls-4,.cls-5,.cls-6,.cls-7,.cls-8,.cls-9{fill-rule:evenodd;}.cls-5{fill:#ccc;mix-blend-mode:multiply;}.cls-6{fill:#b3b3b3;}.cls-7{fill:#f2f2f2;}.cls-8{fill:url(#linear-gradient);}.cls-10,.cls-9{fill:#fff;}</style><clipPath id="clip-path" transform="translate(-2.09)"><rect class="cls-1" x="42.82" width="108.61" height="189.21"/></clipPath><linearGradient id="linear-gradient" x1="155.55" y1="51.9" x2="-6.89" y2="130.76" gradientUnits="userSpaceOnUse"><stop offset="0" stop-color="#7f3026"/><stop offset="1" stop-color="#c61b26"/></linearGradient></defs><title>left</title><g class="cls-2"><g id="Layer_1" data-name="Layer 1"><g class="cls-3"><path class="cls-4" d="M42.3,0h-.7V189.21h.18c4-36.9,7.66-50.31,7.66-100.09C49.61,45.61,45.78,33.59,42.3,0Z" transform="translate(-2.09)"/><path class="cls-5" d="M29.07,39.69c23.85.52,89.81-1.22,107.57,1.74,12.18,1.92,12,21.09,12,37.45,0,21.59-.6,26.78-.6,48.53,0,11.14-11.36,17.92-23.37,16.18-36.55-4.7-64.3-.33-101.2-2.07C11.32,141,7.14,136.29,7.14,125V59.88c0-11.31,9.74-20.54,21.93-20.19Z" transform="translate(-2.09)"/><path class="cls-6" d="M28,39.86H130.9a20.54,20.54,0,0,1,20.54,20.37v65.1a20.58,20.58,0,0,1-20.54,20.54H28A20.58,20.58,0,0,1,7.49,125.33V60.23A20.54,20.54,0,0,1,28,39.86Z" transform="translate(-2.09)"/><path class="cls-7" d="M27.67,39.34H130.55a20.69,20.69,0,0,1,20.54,20.54V125a20.81,20.81,0,0,1-20.54,20.54H27.67A20.69,20.69,0,0,1,7.14,125V59.88A20.58,20.58,0,0,1,27.67,39.34Z" transform="translate(-2.09)"/><path class="cls-8" d="M17.06,48.56H127.41a14.93,14.93,0,0,1,14.79,15v57.79a14.78,14.78,0,0,1-14.79,14.79H17.06a14.93,14.93,0,0,1-15-14.79V63.54a15.08,15.08,0,0,1,15-15Z" transform="translate(-2.09)"/><path class="cls-9" d="M41.95,0h1.22V189.21h-.35C35,152.31,27.5,138.9,27.33,89.12c0-43.51,7.49-55.53,14.62-89.12Z" transform="translate(-2.09)"/><circle class="cls-10" cx="65.55" cy="92.34" r="14.45"/><circle class="cls-10" cx="96.33" cy="92.34" r="11.51"/><circle class="cls-10" cx="121.77" cy="92.34" r="6.95"/></g></g></g></svg>