<?xml version="1.0" encoding="utf-8"?>
<!-- Generator: Adobe Illustrator 21.1.0, SVG Export Plug-In . SVG Version: 6.00 Build 0)  -->
<svg version="1.1" id="Layer_1" xmlns="http://www.w3.org/2000/svg" xmlns:xlink="http://www.w3.org/1999/xlink" x="0px" y="0px"
	 viewBox="0 0 48 48" style="enable-background:new 0 0 48 48;" xml:space="preserve">
<style type="text/css">
	.st0{fill:#601A1A;}
</style>
<g>
	<path class="st0" d="M24.2,44.5c-2.9,0-5.3-2.4-5.3-5.3V29H8.8c-2.9,0-5.3-2.4-5.3-5.3s2.4-5.3,5.3-5.3H19V8.8
		c0-2.9,2.4-5.3,5.3-5.3s5.3,2.4,5.3,5.3v9.6h9.7c2.9,0,5.3,2.4,5.3,5.3S42.1,29,39.2,29h-9.7v10.2C29.5,42.1,27.1,44.5,24.2,44.5z
		 M8.8,20.9c-1.5,0-2.8,1.3-2.8,2.8s1.3,2.8,2.8,2.8H20c0.7,0,1.5,0.6,1.5,1.2v11.5c0,1.5,1.3,2.8,2.8,2.8s2.8-1.3,2.8-2.8V27.7
		c0-0.7,0.3-1.2,1-1.2h11.2c1.5,0,2.8-1.3,2.8-2.8s-1.3-2.8-2.8-2.8H28c-0.7,0-1-0.6-1-1.2V8.8C27,7.3,25.8,6,24.2,6
		c-1.5,0-2.8,1.3-2.8,2.8v10.9c0,0.7-0.8,1.2-1.5,1.2C19.9,20.9,8.8,20.9,8.8,20.9z"/>
</g>
</svg>
