<?xml version="1.0" encoding="utf-8"?>
<!-- Generator: Adobe Illustrator 21.1.0, SVG Export Plug-In . SVG Version: 6.00 Build 0)  -->
<svg version="1.1" id="Layer_1" xmlns="http://www.w3.org/2000/svg" xmlns:xlink="http://www.w3.org/1999/xlink" x="0px" y="0px"
	 viewBox="0 0 536.2 533.5" style="enable-background:new 0 0 536.2 533.5;" xml:space="preserve">
<style type="text/css">
	.st0{filter:url(#Adobe_OpacityMaskFilter);}
	.st1{filter:url(#Adobe_OpacityMaskFilter_1_);}
	.st2{mask:url(#SVGID_1_);fill:url(#SVGID_2_);}
	.st3{filter:url(#Adobe_OpacityMaskFilter_2_);}
	.st4{filter:url(#Adobe_OpacityMaskFilter_3_);}
	.st5{mask:url(#SVGID_3_);fill:url(#SVGID_4_);}
	.st6{fill:url(#SVGID_5_);}
	.st7{fill:#FFFFFF;}
	.st8{fill:url(#SVGID_6_);}
	.st9{filter:url(#Adobe_OpacityMaskFilter_4_);}
	.st10{filter:url(#Adobe_OpacityMaskFilter_5_);}
	.st11{mask:url(#SVGID_7_);fill:url(#SVGID_8_);}
	.st12{filter:url(#Adobe_OpacityMaskFilter_6_);}
	.st13{filter:url(#Adobe_OpacityMaskFilter_7_);}
	.st14{mask:url(#SVGID_9_);fill:url(#SVGID_10_);}
	.st15{fill:url(#SVGID_11_);}
	.st16{filter:url(#Adobe_OpacityMaskFilter_8_);}
	.st17{filter:url(#Adobe_OpacityMaskFilter_9_);}
	.st18{mask:url(#SVGID_12_);fill:url(#SVGID_13_);}
	.st19{filter:url(#Adobe_OpacityMaskFilter_10_);}
	.st20{filter:url(#Adobe_OpacityMaskFilter_11_);}
	.st21{mask:url(#SVGID_14_);fill:url(#SVGID_15_);}
	.st22{fill:url(#SVGID_16_);}
	.st23{fill:url(#SVGID_17_);}
	.st24{filter:url(#Adobe_OpacityMaskFilter_12_);}
	.st25{filter:url(#Adobe_OpacityMaskFilter_13_);}
	.st26{clip-path:url(#SVGID_19_);mask:url(#SVGID_20_);fill:url(#SVGID_21_);}
	.st27{clip-path:url(#SVGID_19_);}
	.st28{filter:url(#Adobe_OpacityMaskFilter_14_);}
	.st29{filter:url(#Adobe_OpacityMaskFilter_15_);}
	.st30{mask:url(#SVGID_22_);fill:url(#SVGID_23_);}
	.st31{fill:url(#SVGID_24_);}
	.st32{fill:url(#SVGID_25_);}
	.st33{opacity:0.11;}
	.st34{fill:url(#SVGID_26_);}
	.st35{filter:url(#Adobe_OpacityMaskFilter_16_);}
	.st36{filter:url(#Adobe_OpacityMaskFilter_17_);}
	.st37{mask:url(#SVGID_27_);fill:url(#SVGID_28_);}
	.st38{opacity:0.41;fill:url(#SVGID_29_);}
	.st39{fill:#A17039;}
	.st40{fill:#FFF0DE;}
	.st41{fill:url(#SVGID_30_);}
	.st42{display:none;opacity:0.24;}
	.st43{opacity:0.24;}
	.st44{fill:#F7F7F7;}
	.st45{fill:url(#SVGID_31_);}
	.st46{fill:url(#SVGID_32_);}
</style>
<g>
	<g>
		<defs>
			<filter id="Adobe_OpacityMaskFilter" filterUnits="userSpaceOnUse" x="20.4" y="20.5" width="508.8" height="508.8">
				<feColorMatrix  type="matrix" values="1 0 0 0 0  0 1 0 0 0  0 0 1 0 0  0 0 0 1 0"/>
			</filter>
		</defs>
		<mask maskUnits="userSpaceOnUse" x="20.4" y="20.5" width="508.8" height="508.8" id="SVGID_1_">
			<g class="st0">
				<defs>
					<filter id="Adobe_OpacityMaskFilter_1_" filterUnits="userSpaceOnUse" x="20.4" y="20.5" width="508.8" height="508.8">
						<feFlood  style="flood-color:white;flood-opacity:1" result="back"/>
						<feBlend  in="SourceGraphic" in2="back" mode="normal"/>
					</filter>
				</defs>
				<mask maskUnits="userSpaceOnUse" x="20.4" y="20.5" width="508.8" height="508.8" id="SVGID_1_">
					<g class="st1">
					</g>
				</mask>
				
					<radialGradient id="SVGID_2_" cx="241.567" cy="239.3038" r="203.4184" gradientTransform="matrix(1.2507 0 0 1.2507 -27.2927 -24.419)" gradientUnits="userSpaceOnUse">
					<stop  offset="0.9215" style="stop-color:#FFFFFF"/>
					<stop  offset="0.9243" style="stop-color:#ECECEC"/>
					<stop  offset="0.9329" style="stop-color:#B5B5B5"/>
					<stop  offset="0.9418" style="stop-color:#858585"/>
					<stop  offset="0.9507" style="stop-color:#5C5C5C"/>
					<stop  offset="0.9599" style="stop-color:#3B3B3B"/>
					<stop  offset="0.9692" style="stop-color:#212121"/>
					<stop  offset="0.9788" style="stop-color:#0E0E0E"/>
					<stop  offset="0.9888" style="stop-color:#040404"/>
					<stop  offset="1" style="stop-color:#000000"/>
				</radialGradient>
				<path class="st2" d="M529.2,274.9c0,140.5-113.9,254.4-254.4,254.4c-140.5,0-254.4-113.9-254.4-254.4
					c0-140.5,113.9-254.4,254.4-254.4C415.3,20.5,529.2,134.4,529.2,274.9z"/>
			</g>
		</mask>
		<g>
			<defs>
				<filter id="Adobe_OpacityMaskFilter_2_" filterUnits="userSpaceOnUse" x="20.4" y="20.5" width="508.8" height="508.8">
					<feFlood  style="flood-color:white;flood-opacity:1" result="back"/>
					<feBlend  in="SourceGraphic" in2="back" mode="normal"/>
				</filter>
			</defs>
			<mask maskUnits="userSpaceOnUse" x="20.4" y="20.5" width="508.8" height="508.8" id="SVGID_3_">
				<g class="st3">
					<defs>
						<filter id="Adobe_OpacityMaskFilter_3_" filterUnits="userSpaceOnUse" x="20.4" y="20.5" width="508.8" height="508.8">
							<feFlood  style="flood-color:white;flood-opacity:1" result="back"/>
							<feBlend  in="SourceGraphic" in2="back" mode="normal"/>
						</filter>
					</defs>
					<mask maskUnits="userSpaceOnUse" x="20.4" y="20.5" width="508.8" height="508.8" id="SVGID_3_">
						<g class="st4">
						</g>
					</mask>
					
						<radialGradient id="SVGID_4_" cx="241.567" cy="239.3038" r="203.4184" gradientTransform="matrix(1.2507 0 0 1.2507 -27.2927 -24.419)" gradientUnits="userSpaceOnUse">
						<stop  offset="0.9215" style="stop-color:#FFFFFF"/>
						<stop  offset="0.9243" style="stop-color:#ECECEC"/>
						<stop  offset="0.9329" style="stop-color:#B5B5B5"/>
						<stop  offset="0.9418" style="stop-color:#858585"/>
						<stop  offset="0.9507" style="stop-color:#5C5C5C"/>
						<stop  offset="0.9599" style="stop-color:#3B3B3B"/>
						<stop  offset="0.9692" style="stop-color:#212121"/>
						<stop  offset="0.9788" style="stop-color:#0E0E0E"/>
						<stop  offset="0.9888" style="stop-color:#040404"/>
						<stop  offset="1" style="stop-color:#000000"/>
					</radialGradient>
					<path class="st5" d="M529.2,274.9c0,140.5-113.9,254.4-254.4,254.4c-140.5,0-254.4-113.9-254.4-254.4
						c0-140.5,113.9-254.4,254.4-254.4C415.3,20.5,529.2,134.4,529.2,274.9z"/>
				</g>
			</mask>
			
				<radialGradient id="SVGID_5_" cx="241.567" cy="239.3038" r="203.4184" gradientTransform="matrix(1.2507 0 0 1.2507 -27.2927 -24.419)" gradientUnits="userSpaceOnUse">
				<stop  offset="0.9215" style="stop-color:#000000"/>
				<stop  offset="0.9257" style="stop-color:#000000"/>
				<stop  offset="1" style="stop-color:#000000"/>
			</radialGradient>
			<path class="st6" d="M529.2,274.9c0,140.5-113.9,254.4-254.4,254.4c-140.5,0-254.4-113.9-254.4-254.4
				c0-140.5,113.9-254.4,254.4-254.4C415.3,20.5,529.2,134.4,529.2,274.9z"/>
		</g>
		<path class="st7" d="M104.1,459.7c-113.4-83-138-242.2-55-355.6c83-113.4,242.2-138,355.6-55c113.4,83,138,242.2,55,355.6
			C376.7,518.1,217.5,542.7,104.1,459.7z"/>
		<linearGradient id="SVGID_6_" gradientUnits="userSpaceOnUse" x1="66.2635" y1="66.3047" x2="445.1266" y2="445.1678">
			<stop  offset="4.906870e-03" style="stop-color:#F5F5F5"/>
			<stop  offset="2.463050e-02" style="stop-color:#FAFAFA"/>
			<stop  offset="1" style="stop-color:#E6E6E6"/>
		</linearGradient>
		<circle class="st8" cx="254.4" cy="254.4" r="250.1"/>
		<defs>
			<filter id="Adobe_OpacityMaskFilter_4_" filterUnits="userSpaceOnUse" x="134.1" y="140.6" width="335.2" height="335.2">
				<feColorMatrix  type="matrix" values="1 0 0 0 0  0 1 0 0 0  0 0 1 0 0  0 0 0 1 0"/>
			</filter>
		</defs>
		<mask maskUnits="userSpaceOnUse" x="134.1" y="140.6" width="335.2" height="335.2" id="SVGID_7_">
			<g class="st9">
				<defs>
					<filter id="Adobe_OpacityMaskFilter_5_" filterUnits="userSpaceOnUse" x="134.1" y="140.6" width="335.2" height="335.2">
						<feFlood  style="flood-color:white;flood-opacity:1" result="back"/>
						<feBlend  in="SourceGraphic" in2="back" mode="normal"/>
					</filter>
				</defs>
				<mask maskUnits="userSpaceOnUse" x="134.1" y="140.6" width="335.2" height="335.2" id="SVGID_7_">
					<g class="st10">
					</g>
				</mask>
				
					<radialGradient id="SVGID_8_" cx="298.5027" cy="96.6402" r="120.0943" gradientTransform="matrix(1.0624 1.0624 -0.9046 0.9046 72.0162 -96.3657)" gradientUnits="userSpaceOnUse">
					<stop  offset="0.2069" style="stop-color:#FFFFFF"/>
					<stop  offset="0.3425" style="stop-color:#D1D1D1"/>
					<stop  offset="0.7936" style="stop-color:#3C3C3C"/>
					<stop  offset="0.9902" style="stop-color:#000000"/>
				</radialGradient>
				<path class="st11" d="M429.3,435.8c-60,60-165.8,51.5-236.2-18.9c-70.5-70.5-79-176.2-19-236.2c60-60,165.8-51.5,236.2,18.9
					C480.8,270,489.3,375.8,429.3,435.8z"/>
			</g>
		</mask>
		<g>
			<defs>
				<filter id="Adobe_OpacityMaskFilter_6_" filterUnits="userSpaceOnUse" x="134.1" y="140.6" width="335.2" height="335.2">
					<feFlood  style="flood-color:white;flood-opacity:1" result="back"/>
					<feBlend  in="SourceGraphic" in2="back" mode="normal"/>
				</filter>
			</defs>
			<mask maskUnits="userSpaceOnUse" x="134.1" y="140.6" width="335.2" height="335.2" id="SVGID_9_">
				<g class="st12">
					<defs>
						<filter id="Adobe_OpacityMaskFilter_7_" filterUnits="userSpaceOnUse" x="134.1" y="140.6" width="335.2" height="335.2">
							<feFlood  style="flood-color:white;flood-opacity:1" result="back"/>
							<feBlend  in="SourceGraphic" in2="back" mode="normal"/>
						</filter>
					</defs>
					<mask maskUnits="userSpaceOnUse" x="134.1" y="140.6" width="335.2" height="335.2" id="SVGID_9_">
						<g class="st13">
						</g>
					</mask>
					
						<radialGradient id="SVGID_10_" cx="298.5027" cy="96.6402" r="120.0943" gradientTransform="matrix(1.0624 1.0624 -0.9046 0.9046 72.0162 -96.3657)" gradientUnits="userSpaceOnUse">
						<stop  offset="0.5025" style="stop-color:#FFFFFF"/>
						<stop  offset="0.5961" style="stop-color:#FCFCFC"/>
						<stop  offset="0.6624" style="stop-color:#F3F3F3"/>
						<stop  offset="0.7203" style="stop-color:#E3E3E3"/>
						<stop  offset="0.7733" style="stop-color:#CDCDCD"/>
						<stop  offset="0.8232" style="stop-color:#B1B1B1"/>
						<stop  offset="0.8705" style="stop-color:#8E8E8E"/>
						<stop  offset="0.916" style="stop-color:#646464"/>
						<stop  offset="0.9588" style="stop-color:#353535"/>
						<stop  offset="1" style="stop-color:#000000"/>
					</radialGradient>
					<path class="st14" d="M429.3,435.8c-60,60-165.8,51.5-236.2-18.9c-70.5-70.5-79-176.2-19-236.2c60-60,165.8-51.5,236.2,18.9
						C480.8,270,489.3,375.8,429.3,435.8z"/>
				</g>
			</mask>
			
				<radialGradient id="SVGID_11_" cx="298.5027" cy="96.6402" r="120.0943" gradientTransform="matrix(1.0624 1.0624 -0.9046 0.9046 72.0162 -96.3657)" gradientUnits="userSpaceOnUse">
				<stop  offset="0.5025" style="stop-color:#000000"/>
				<stop  offset="0.9914" style="stop-color:#030303"/>
				<stop  offset="1" style="stop-color:#030303"/>
			</radialGradient>
			<path class="st15" d="M429.3,435.8c-60,60-165.8,51.5-236.2-18.9c-70.5-70.5-79-176.2-19-236.2c60-60,165.8-51.5,236.2,18.9
				C480.8,270,489.3,375.8,429.3,435.8z"/>
		</g>
		<defs>
			<filter id="Adobe_OpacityMaskFilter_8_" filterUnits="userSpaceOnUse" x="111.9" y="118.4" width="320.7" height="320.7">
				<feColorMatrix  type="matrix" values="1 0 0 0 0  0 1 0 0 0  0 0 1 0 0  0 0 0 1 0"/>
			</filter>
		</defs>
		<mask maskUnits="userSpaceOnUse" x="111.9" y="118.4" width="320.7" height="320.7" id="SVGID_12_">
			<g class="st16">
				<defs>
					<filter id="Adobe_OpacityMaskFilter_9_" filterUnits="userSpaceOnUse" x="111.9" y="118.4" width="320.7" height="320.7">
						<feFlood  style="flood-color:white;flood-opacity:1" result="back"/>
						<feBlend  in="SourceGraphic" in2="back" mode="normal"/>
					</filter>
				</defs>
				<mask maskUnits="userSpaceOnUse" x="111.9" y="118.4" width="320.7" height="320.7" id="SVGID_12_">
					<g class="st17">
					</g>
				</mask>
				
					<radialGradient id="SVGID_13_" cx="231.0363" cy="232.9457" r="120.0953" gradientTransform="matrix(1.3352 0 0 1.3352 -36.1858 -32.2778)" gradientUnits="userSpaceOnUse">
					<stop  offset="0.7735" style="stop-color:#FFFFFF"/>
					<stop  offset="0.8024" style="stop-color:#CECECE"/>
					<stop  offset="0.8428" style="stop-color:#909090"/>
					<stop  offset="0.8817" style="stop-color:#5D5D5D"/>
					<stop  offset="0.9179" style="stop-color:#353535"/>
					<stop  offset="0.9507" style="stop-color:#181818"/>
					<stop  offset="0.9792" style="stop-color:#060606"/>
					<stop  offset="1" style="stop-color:#000000"/>
				</radialGradient>
				<path class="st18" d="M432.6,278.7c0,88.6-71.8,160.4-160.4,160.4c-88.6,0-160.3-71.8-160.3-160.4
					c0-88.6,71.8-160.3,160.3-160.3C360.9,118.4,432.6,190.2,432.6,278.7z"/>
			</g>
		</mask>
		<g>
			<defs>
				<filter id="Adobe_OpacityMaskFilter_10_" filterUnits="userSpaceOnUse" x="111.9" y="118.4" width="320.7" height="320.7">
					<feFlood  style="flood-color:white;flood-opacity:1" result="back"/>
					<feBlend  in="SourceGraphic" in2="back" mode="normal"/>
				</filter>
			</defs>
			<mask maskUnits="userSpaceOnUse" x="111.9" y="118.4" width="320.7" height="320.7" id="SVGID_14_">
				<g class="st19">
					<defs>
						<filter id="Adobe_OpacityMaskFilter_11_" filterUnits="userSpaceOnUse" x="111.9" y="118.4" width="320.7" height="320.7">
							<feFlood  style="flood-color:white;flood-opacity:1" result="back"/>
							<feBlend  in="SourceGraphic" in2="back" mode="normal"/>
						</filter>
					</defs>
					<mask maskUnits="userSpaceOnUse" x="111.9" y="118.4" width="320.7" height="320.7" id="SVGID_14_">
						<g class="st20">
						</g>
					</mask>
					
						<radialGradient id="SVGID_15_" cx="231.0363" cy="232.9457" r="120.0953" gradientTransform="matrix(1.3352 0 0 1.3352 -36.1858 -32.2778)" gradientUnits="userSpaceOnUse">
						<stop  offset="0.8769" style="stop-color:#FFFFFF"/>
						<stop  offset="0.8926" style="stop-color:#CECECE"/>
						<stop  offset="0.9146" style="stop-color:#909090"/>
						<stop  offset="0.9357" style="stop-color:#5D5D5D"/>
						<stop  offset="0.9554" style="stop-color:#353535"/>
						<stop  offset="0.9732" style="stop-color:#181818"/>
						<stop  offset="0.9887" style="stop-color:#060606"/>
						<stop  offset="1" style="stop-color:#000000"/>
					</radialGradient>
					<path class="st21" d="M432.6,278.7c0,88.6-71.8,160.4-160.4,160.4c-88.6,0-160.3-71.8-160.3-160.4
						c0-88.6,71.8-160.3,160.3-160.3C360.9,118.4,432.6,190.2,432.6,278.7z"/>
				</g>
			</mask>
			
				<radialGradient id="SVGID_16_" cx="231.0363" cy="232.9457" r="120.0953" gradientTransform="matrix(1.3352 0 0 1.3352 -36.1858 -32.2778)" gradientUnits="userSpaceOnUse">
				<stop  offset="0.8769" style="stop-color:#000000"/>
				<stop  offset="1" style="stop-color:#000000"/>
			</radialGradient>
			<path class="st22" d="M432.6,278.7c0,88.6-71.8,160.4-160.4,160.4c-88.6,0-160.3-71.8-160.3-160.4c0-88.6,71.8-160.3,160.3-160.3
				C360.9,118.4,432.6,190.2,432.6,278.7z"/>
		</g>
	</g>
	<g>
		
			<radialGradient id="SVGID_17_" cx="960.9778" cy="4603.9575" r="34.1445" gradientTransform="matrix(1.245 -0.1186 7.758293e-02 0.8149 -1104.3795 -3401.1995)" gradientUnits="userSpaceOnUse">
			<stop  offset="0" style="stop-color:#FFFFFF"/>
			<stop  offset="0.2381" style="stop-color:#FCFCFC"/>
			<stop  offset="0.4261" style="stop-color:#F2F2F2"/>
			<stop  offset="0.597" style="stop-color:#E1E1E1"/>
			<stop  offset="0.7576" style="stop-color:#CACACA"/>
			<stop  offset="0.9099" style="stop-color:#ACACAC"/>
			<stop  offset="1" style="stop-color:#969696"/>
		</radialGradient>
		<path class="st23" d="M472.1,256.4l-63.5,6l-4.2-43.9l63.5-6c12.1-1.2,22.9,7.7,24,19.9l0,0C493.1,244.5,484.2,255.3,472.1,256.4z
			"/>
		<g>
			<defs>
				<path id="SVGID_18_" d="M109.8,415.6l41.3-56.5l35.6,26l-41.3,56.5c-5.2,7-15,8.6-22.1,3.4l-10.1-7.4
					C106.1,432.6,104.6,422.7,109.8,415.6z"/>
			</defs>
			<clipPath id="SVGID_19_">
				<use xlink:href="#SVGID_18_"  style="overflow:visible;"/>
			</clipPath>
			<defs>
				<filter id="Adobe_OpacityMaskFilter_12_" filterUnits="userSpaceOnUse" x="400.4" y="197.1" width="34.2" height="88.6">
					<feColorMatrix  type="matrix" values="1 0 0 0 0  0 1 0 0 0  0 0 1 0 0  0 0 0 1 0"/>
				</filter>
			</defs>
			<mask maskUnits="userSpaceOnUse" x="400.4" y="197.1" width="34.2" height="88.6" id="SVGID_20_">
				<g class="st24">
					<defs>
						<filter id="Adobe_OpacityMaskFilter_13_" filterUnits="userSpaceOnUse" x="400.4" y="197.1" width="34.2" height="88.6">
							<feFlood  style="flood-color:white;flood-opacity:1" result="back"/>
							<feBlend  in="SourceGraphic" in2="back" mode="normal"/>
						</filter>
					</defs>
					<mask maskUnits="userSpaceOnUse" x="400.4" y="197.1" width="34.2" height="88.6" id="SVGID_20_">
						<g class="st25">
						</g>
					</mask>
					
						<radialGradient id="SVGID_21_" cx="2303.5889" cy="179.1439" r="33.9762" gradientTransform="matrix(0.4874 -4.642493e-02 0.1242 1.3037 -727.6099 114.8036)" gradientUnits="userSpaceOnUse">
						<stop  offset="0" style="stop-color:#FFFFFF"/>
						<stop  offset="0.1276" style="stop-color:#CECECE"/>
						<stop  offset="0.3063" style="stop-color:#909090"/>
						<stop  offset="0.4779" style="stop-color:#5D5D5D"/>
						<stop  offset="0.6375" style="stop-color:#353535"/>
						<stop  offset="0.7825" style="stop-color:#181818"/>
						<stop  offset="0.9081" style="stop-color:#060606"/>
						<stop  offset="1" style="stop-color:#000000"/>
					</radialGradient>
					<path class="st26" d="M434,239.8c2.3,24.5-3.2,45-12.3,45.9c-9.1,0.9-18.5-18.3-20.8-42.7c-2.3-24.5,3.2-45,12.3-45.9
						C422.4,196.2,431.7,215.4,434,239.8z"/>
				</g>
			</mask>
			<g class="st27">
				<defs>
					<filter id="Adobe_OpacityMaskFilter_14_" filterUnits="userSpaceOnUse" x="400.4" y="197.1" width="34.2" height="88.6">
						<feFlood  style="flood-color:white;flood-opacity:1" result="back"/>
						<feBlend  in="SourceGraphic" in2="back" mode="normal"/>
					</filter>
				</defs>
				<mask maskUnits="userSpaceOnUse" x="400.4" y="197.1" width="34.2" height="88.6" id="SVGID_22_">
					<g class="st28">
						<defs>
							<filter id="Adobe_OpacityMaskFilter_15_" filterUnits="userSpaceOnUse" x="400.4" y="197.1" width="34.2" height="88.6">
								<feFlood  style="flood-color:white;flood-opacity:1" result="back"/>
								<feBlend  in="SourceGraphic" in2="back" mode="normal"/>
							</filter>
						</defs>
						<mask maskUnits="userSpaceOnUse" x="400.4" y="197.1" width="34.2" height="88.6" id="SVGID_22_">
							<g class="st29">
							</g>
						</mask>
						
							<radialGradient id="SVGID_23_" cx="2303.5889" cy="179.1439" r="33.9762" gradientTransform="matrix(0.4874 -4.642493e-02 0.1242 1.3037 -727.6099 114.8036)" gradientUnits="userSpaceOnUse">
							<stop  offset="0.5862" style="stop-color:#FFFFFF"/>
							<stop  offset="0.6336" style="stop-color:#FBFBFB"/>
							<stop  offset="0.685" style="stop-color:#EEEEEE"/>
							<stop  offset="0.7384" style="stop-color:#D8D8D8"/>
							<stop  offset="0.793" style="stop-color:#B9B9B9"/>
							<stop  offset="0.8487" style="stop-color:#929292"/>
							<stop  offset="0.9053" style="stop-color:#626262"/>
							<stop  offset="0.9615" style="stop-color:#2B2B2B"/>
							<stop  offset="1" style="stop-color:#000000"/>
						</radialGradient>
						<path class="st30" d="M434,239.8c2.3,24.5-3.2,45-12.3,45.9c-9.1,0.9-18.5-18.3-20.8-42.7c-2.3-24.5,3.2-45,12.3-45.9
							C422.4,196.2,431.7,215.4,434,239.8z"/>
					</g>
				</mask>
				
					<radialGradient id="SVGID_24_" cx="2303.5889" cy="179.1439" r="33.9762" gradientTransform="matrix(0.4874 -4.642493e-02 0.1242 1.3037 -727.6099 114.8036)" gradientUnits="userSpaceOnUse">
					<stop  offset="0.5862" style="stop-color:#000000"/>
					<stop  offset="1" style="stop-color:#000000"/>
				</radialGradient>
				<path class="st31" d="M434,239.8c2.3,24.5-3.2,45-12.3,45.9c-9.1,0.9-18.5-18.3-20.8-42.7c-2.3-24.5,3.2-45,12.3-45.9
					C422.4,196.2,431.7,215.4,434,239.8z"/>
			</g>
		</g>
	</g>
	
		<radialGradient id="SVGID_25_" cx="88.4441" cy="274.4982" r="129.0758" gradientTransform="matrix(0.8843 -0.8843 0.8843 0.8843 -66.5619 89.9059)" gradientUnits="userSpaceOnUse">
		<stop  offset="0" style="stop-color:#FFFFFF"/>
		<stop  offset="0.8329" style="stop-color:#333333"/>
		<stop  offset="0.8373" style="stop-color:#484848"/>
		<stop  offset="0.8501" style="stop-color:#7F7F7F"/>
		<stop  offset="0.8626" style="stop-color:#ADADAD"/>
		<stop  offset="0.8745" style="stop-color:#D1D1D1"/>
		<stop  offset="0.8856" style="stop-color:#EAEAEA"/>
		<stop  offset="0.8956" style="stop-color:#FAFAFA"/>
		<stop  offset="0.9036" style="stop-color:#FFFFFF"/>
		<stop  offset="0.9496" style="stop-color:#FFFFFF"/>
		<stop  offset="0.9575" style="stop-color:#FAFAFA"/>
		<stop  offset="0.9666" style="stop-color:#ECECEC"/>
		<stop  offset="0.9762" style="stop-color:#D6D6D6"/>
		<stop  offset="0.9863" style="stop-color:#B6B6B6"/>
		<stop  offset="0.9965" style="stop-color:#8D8D8D"/>
		<stop  offset="1" style="stop-color:#7D7D7D"/>
	</radialGradient>
	<circle class="st32" cx="254.4" cy="254.4" r="161.4"/>
	<ellipse class="st33" cx="249.8" cy="249.9" rx="134.7" ry="134.7"/>
	<radialGradient id="SVGID_26_" cx="254.388" cy="254.431" r="134.6932" gradientUnits="userSpaceOnUse">
		<stop  offset="0" style="stop-color:#FFD6A1"/>
		<stop  offset="0.8737" style="stop-color:#FFCC85"/>
		<stop  offset="0.98" style="stop-color:#A17039"/>
		<stop  offset="0.9836" style="stop-color:#986C3A"/>
		<stop  offset="0.9894" style="stop-color:#81613E"/>
		<stop  offset="0.9967" style="stop-color:#5A4F43"/>
		<stop  offset="1" style="stop-color:#464646"/>
	</radialGradient>
	<ellipse class="st34" cx="254.4" cy="254.4" rx="134.7" ry="134.7"/>
	<g>
		<defs>
			<filter id="Adobe_OpacityMaskFilter_16_" filterUnits="userSpaceOnUse" x="141.7" y="141.9" width="189.3" height="189.3">
				<feFlood  style="flood-color:white;flood-opacity:1" result="back"/>
				<feBlend  in="SourceGraphic" in2="back" mode="normal"/>
			</filter>
		</defs>
		<mask maskUnits="userSpaceOnUse" x="141.7" y="141.9" width="189.3" height="189.3" id="SVGID_27_">
			<g class="st35">
				<defs>
					<filter id="Adobe_OpacityMaskFilter_17_" filterUnits="userSpaceOnUse" x="141.7" y="141.9" width="189.3" height="189.3">
						<feFlood  style="flood-color:white;flood-opacity:1" result="back"/>
						<feBlend  in="SourceGraphic" in2="back" mode="normal"/>
					</filter>
				</defs>
				<mask maskUnits="userSpaceOnUse" x="141.7" y="141.9" width="189.3" height="189.3" id="SVGID_27_">
					<g class="st36">
					</g>
				</mask>
				
					<linearGradient id="SVGID_28_" gradientUnits="userSpaceOnUse" x1="-142.2353" y1="-167.9215" x2="19.3395" y2="-6.3468" gradientTransform="matrix(-1 0 0 -1 190.8155 165.3629)">
					<stop  offset="0.2555" style="stop-color:#000000"/>
					<stop  offset="0.4067" style="stop-color:#030303"/>
					<stop  offset="0.507" style="stop-color:#0C0C0C"/>
					<stop  offset="0.5924" style="stop-color:#1B1B1B"/>
					<stop  offset="0.6696" style="stop-color:#303030"/>
					<stop  offset="0.7412" style="stop-color:#4B4B4B"/>
					<stop  offset="0.8087" style="stop-color:#6D6D6D"/>
					<stop  offset="0.873" style="stop-color:#969696"/>
					<stop  offset="0.9347" style="stop-color:#C4C4C4"/>
					<stop  offset="0.9924" style="stop-color:#F8F8F8"/>
					<stop  offset="1" style="stop-color:#FFFFFF"/>
				</linearGradient>
				<path class="st37" d="M331,174.4c-20.1-20.1-47.8-32.5-78.4-32.5c-61.2,0-110.9,49.6-110.9,110.9c0,30.6,12.4,58.3,32.5,78.4
					L331,174.4z"/>
			</g>
		</mask>
		
			<linearGradient id="SVGID_29_" gradientUnits="userSpaceOnUse" x1="-142.2353" y1="-167.9215" x2="19.3395" y2="-6.3468" gradientTransform="matrix(-1 0 0 -1 190.8155 165.3629)">
			<stop  offset="0.2555" style="stop-color:#FFFFFF"/>
			<stop  offset="0.6249" style="stop-color:#FFFDFC"/>
			<stop  offset="0.8693" style="stop-color:#FFF8F3"/>
			<stop  offset="1" style="stop-color:#FFF3EB"/>
		</linearGradient>
		<path class="st38" d="M331,174.4c-20.1-20.1-47.8-32.5-78.4-32.5c-61.2,0-110.9,49.6-110.9,110.9c0,30.6,12.4,58.3,32.5,78.4
			L331,174.4z"/>
	</g>
	<g>
		<path class="st39" d="M343,334.5c0,5.4-4.4,9.7-9.7,9.7c-5.4,0-9.7-4.3-9.7-9.7c0-5.4,4.4-9.7,9.7-9.7
			C338.7,324.8,343,329.1,343,334.5z"/>
		<path class="st40" d="M327.8,336.6c0,0-1.6-10,8.5-7.2C331.5,330.4,329,331.8,327.8,336.6z"/>
		<g>
			<ellipse class="st39" cx="361.2" cy="306.6" rx="6.9" ry="6.9"/>
			<path class="st40" d="M357.3,308.1c0,0-1.2-7.1,6-5.1C359.9,303.7,358.2,304.7,357.3,308.1z"/>
		</g>
		<g>
			<circle class="st39" cx="366.3" cy="204" r="6.9"/>
			<path class="st40" d="M362.4,205.5c0,0-1.2-7.1,6-5.1C365,201.1,363.3,202.1,362.4,205.5z"/>
		</g>
		<g>
			<circle class="st39" cx="352.7" cy="202.3" r="5.7"/>
			<path class="st40" d="M349.4,203.5c0,0-1-5.9,5-4.2C351.6,199.9,350.1,200.7,349.4,203.5z"/>
		</g>
		<g>
			<path class="st39" d="M368.7,279.2c0,3.2-2.6,5.7-5.7,5.7c-3.2,0-5.7-2.6-5.7-5.7c0-3.2,2.6-5.7,5.7-5.7
				C366.1,273.5,368.7,276.1,368.7,279.2z"/>
			<path class="st40" d="M359.7,280.4c0,0-1-5.9,5-4.2C361.9,276.8,360.4,277.6,359.7,280.4z"/>
		</g>
		<g>
			<ellipse class="st39" cx="142.4" cy="233.1" rx="5.7" ry="5.7"/>
			<path class="st40" d="M139.2,234.3c0,0-1-5.9,5-4.2C141.3,230.7,139.9,231.5,139.2,234.3z"/>
		</g>
		<g>
			<circle class="st39" cx="147.5" cy="263.8" r="5.7"/>
			<path class="st40" d="M144.3,265.1c0,0-1-5.9,5-4.2C146.5,261.4,145,262.2,144.3,265.1z"/>
		</g>
		<g>
			<path class="st39" d="M168.6,310c0,3.2-2.6,5.7-5.7,5.7c-3.2,0-5.7-2.5-5.7-5.7c0-3.2,2.6-5.7,5.7-5.7
				C166.1,304.3,168.6,306.8,168.6,310z"/>
			<path class="st40" d="M159.7,311.2c0,0-1-5.9,5-4.2C161.9,307.6,160.4,308.4,159.7,311.2z"/>
		</g>
		<g>
			<ellipse class="st39" cx="178.3" cy="166.4" rx="5.7" ry="5.7"/>
			<path class="st40" d="M175.1,167.6c0,0-1-5.9,5-4.2C177.2,164,175.8,164.8,175.1,167.6z"/>
		</g>
		<g>
			<circle class="st39" cx="319.6" cy="353.4" r="6.3"/>
			<path class="st40" d="M316,354.7c0,0-1-6.4,5.5-4.6C318.4,350.7,316.8,351.6,316,354.7z"/>
		</g>
		<g>
			<ellipse class="st39" cx="360.6" cy="261.1" rx="6.3" ry="6.2"/>
			<path class="st40" d="M357,262.4c0,0-1-6.4,5.5-4.6C359.4,258.4,357.8,259.3,357,262.4z"/>
		</g>
		<g>
			<path class="st39" d="M336.6,351.1c0,2.2-1.8,3.9-4,3.9c-2.2,0-4-1.8-4-3.9c0-2.2,1.8-4,4-4C334.8,347.1,336.6,348.9,336.6,351.1
				z"/>
			<path class="st40" d="M330.4,351.9c0,0-0.7-4.1,3.5-2.9C331.9,349.4,330.9,350,330.4,351.9z"/>
		</g>
		<g>
			<path class="st39" d="M357.1,320.3c0,2.2-1.8,3.9-4,3.9c-2.2,0-4-1.8-4-3.9c0-2.2,1.8-4,4-4C355.3,316.3,357.1,318.1,357.1,320.3
				z"/>
			<path class="st40" d="M350.9,321.1c0,0-0.7-4.1,3.5-2.9C352.4,318.6,351.4,319.2,350.9,321.1z"/>
		</g>
		<g>
			<circle class="st39" cx="373.7" cy="269" r="4"/>
			<path class="st40" d="M371.4,269.9c0,0-0.7-4.1,3.5-2.9C372.9,267.3,371.9,267.9,371.4,269.9z"/>
		</g>
		<g>
			<circle class="st39" cx="363.4" cy="228" r="4"/>
			<path class="st40" d="M361.2,228.8c0,0-0.7-4.1,3.5-2.9C362.7,226.3,361.7,226.9,361.2,228.8z"/>
		</g>
		<g>
			<circle class="st39" cx="317.3" cy="156.2" r="4"/>
			<path class="st40" d="M315,157c0,0-0.7-4.1,3.5-2.9C316.5,154.5,315.5,155.1,315,157z"/>
		</g>
		<g>
			<circle class="st39" cx="153.2" cy="192.1" r="4"/>
			<path class="st40" d="M150.9,192.9c0,0-0.7-4.1,3.5-2.9C152.4,190.4,151.4,191,150.9,192.9z"/>
		</g>
		<g>
			<ellipse class="st39" cx="158.3" cy="289.5" rx="4" ry="4"/>
			<path class="st40" d="M156,290.4c0,0-0.7-4.1,3.5-2.9C157.5,287.9,156.5,288.4,156,290.4z"/>
		</g>
		<g>
			<ellipse class="st39" cx="132.6" cy="263.9" rx="4" ry="4"/>
			<path class="st40" d="M130.4,264.7c0,0-0.7-4.1,3.5-2.9C131.9,262.2,130.9,262.8,130.4,264.7z"/>
		</g>
		<g>
			<circle class="st39" cx="137.8" cy="212.6" r="4"/>
			<path class="st40" d="M135.5,213.4c0,0-0.7-4.1,3.5-2.9C137,210.9,136,211.5,135.5,213.4z"/>
		</g>
		<g>
			<circle class="st39" cx="358.3" cy="192.1" r="4"/>
			<path class="st40" d="M356,192.9c0,0-0.7-4.1,3.5-2.9C357.5,190.4,356.5,191,356,192.9z"/>
		</g>
		<g>
			<circle class="st39" cx="153.2" cy="212.6" r="4"/>
			<path class="st40" d="M150.9,213.4c0,0-0.7-4.1,3.5-2.9C152.4,210.9,151.4,211.5,150.9,213.4z"/>
		</g>
		<g>
			<circle class="st39" cx="132.6" cy="243.4" r="4"/>
			<path class="st40" d="M130.4,244.2c0,0-0.7-4.1,3.5-2.9C131.9,241.7,130.9,242.3,130.4,244.2z"/>
		</g>
		<g>
			<ellipse class="st39" cx="137.8" cy="274.1" rx="4" ry="4"/>
			<path class="st40" d="M135.5,275c0,0-0.7-4.1,3.5-2.9C137,272.5,136,273,135.5,275z"/>
		</g>
		<g>
			<circle class="st39" cx="148" cy="299.8" r="4"/>
			<path class="st40" d="M145.8,300.6c0,0-0.7-4.1,3.5-2.9C147.3,298.1,146.3,298.7,145.8,300.6z"/>
		</g>
		<g>
			<circle class="st39" cx="163.4" cy="330.6" r="4"/>
			<path class="st40" d="M161.2,331.4c0,0-0.7-4.1,3.5-2.9C162.7,328.9,161.7,329.5,161.2,331.4z"/>
		</g>
		<g>
			<circle class="st39" cx="289.7" cy="373.5" r="7.2"/>
			<path class="st40" d="M285.6,375c0,0-1.2-7.4,6.3-5.3C288.4,370.4,286.5,371.5,285.6,375z"/>
		</g>
		<g>
			<path class="st39" d="M298.4,358.1c0,2-1.6,3.5-3.5,3.5c-2,0-3.6-1.6-3.6-3.5c0-2,1.6-3.6,3.6-3.6
				C296.8,354.5,298.4,356.1,298.4,358.1z"/>
			<path class="st40" d="M292.8,358.9c0,0-0.6-3.7,3.1-2.6C294.2,356.6,293.3,357.1,292.8,358.9z"/>
		</g>
		<g>
			<ellipse class="st39" cx="305.1" cy="353" rx="5.4" ry="5.4"/>
			<path class="st40" d="M302.1,354.1c0,0-0.9-5.5,4.7-4C304.1,350.7,302.7,351.5,302.1,354.1z"/>
		</g>
		<g>
			<path class="st39" d="M278.4,378.6c0,2.2-1.8,4.1-4.1,4.1c-2.3,0-4.1-1.8-4.1-4.1c0-2.3,1.8-4.1,4.1-4.1
				C276.6,374.5,278.4,376.4,278.4,378.6z"/>
			<path class="st40" d="M272,379.5c0,0-0.7-4.2,3.6-3C273.6,376.9,272.5,377.5,272,379.5z"/>
		</g>
		<g>
			<ellipse class="st39" cx="272" cy="370.3" rx="1.8" ry="1.8"/>
			<path class="st40" d="M271,370.6c0,0-0.3-1.8,1.5-1.3C271.6,369.5,271.2,369.8,271,370.6z"/>
		</g>
		<g>
			<ellipse class="st39" cx="245.5" cy="381.3" rx="1.1" ry="1.1"/>
			<path class="st40" d="M244.9,381.6c0,0-0.2-1.1,1-0.8C245.3,380.9,245,381,244.9,381.6z"/>
		</g>
		<g>
			<path class="st39" d="M267.1,376.2c0,0.6-0.5,1.1-1.1,1.1c-0.6,0-1.1-0.5-1.1-1.1c0-0.6,0.5-1.1,1.1-1.1
				C266.6,375.1,267.1,375.6,267.1,376.2z"/>
			<path class="st40" d="M265.4,376.5c0,0-0.2-1.1,1-0.8C265.8,375.8,265.5,375.9,265.4,376.5z"/>
		</g>
		<g>
			<ellipse class="st39" cx="266" cy="381.3" rx="1.1" ry="1.1"/>
			<path class="st40" d="M265.4,381.6c0,0-0.2-1.1,1-0.8C265.8,380.9,265.5,381,265.4,381.6z"/>
		</g>
		<g>
			<path class="st39" d="M305.4,374.6c0,1.1-0.9,1.9-1.9,1.9c-1,0-1.9-0.8-1.9-1.9c0-1,0.8-1.9,1.9-1.9
				C304.6,372.7,305.4,373.6,305.4,374.6z"/>
			<path class="st40" d="M302.4,375c0,0-0.3-1.9,1.7-1.4C303.2,373.8,302.7,374.1,302.4,375z"/>
		</g>
		<g>
			<ellipse class="st39" cx="283" cy="364.4" rx="1.9" ry="1.9"/>
			<path class="st40" d="M281.9,364.8c0,0-0.3-1.9,1.7-1.4C282.7,363.6,282.2,363.8,281.9,364.8z"/>
		</g>
		<g>
			<ellipse class="st39" cx="134.3" cy="277.2" rx="1.9" ry="1.9"/>
			<path class="st40" d="M133.2,277.6c0,0-0.3-1.9,1.7-1.4C133.9,276.4,133.4,276.7,133.2,277.6z"/>
		</g>
		<g>
			<circle class="st39" cx="144.5" cy="215.6" r="1.9"/>
			<path class="st40" d="M143.5,216c0,0-0.3-1.9,1.7-1.4C144.2,214.8,143.7,215.1,143.5,216z"/>
		</g>
		<g>
			<circle class="st39" cx="159.9" cy="200.3" r="1.9"/>
			<path class="st40" d="M158.9,200.7c0,0-0.3-1.9,1.7-1.4C159.6,199.5,159.1,199.7,158.9,200.7z"/>
		</g>
		<g>
			<circle class="st39" cx="134.3" cy="251.5" r="1.9"/>
			<path class="st40" d="M133.2,251.9c0,0-0.3-1.9,1.7-1.4C133.9,250.7,133.4,251,133.2,251.9z"/>
		</g>
		<g>
			<path class="st39" d="M151.6,318.2c0,1-0.9,1.9-1.9,1.9c-1,0-1.9-0.9-1.9-1.9c0-1.1,0.9-1.9,1.9-1.9
				C150.7,316.3,151.6,317.2,151.6,318.2z"/>
			<path class="st40" d="M148.6,318.6c0,0-0.3-1.9,1.7-1.4C149.3,317.4,148.8,317.7,148.6,318.6z"/>
		</g>
		<g>
			<path class="st39" d="M151.6,287.4c0,1.1-0.9,1.9-1.9,1.9c-1,0-1.9-0.8-1.9-1.9c0-1,0.9-1.9,1.9-1.9
				C150.7,285.5,151.6,286.4,151.6,287.4z"/>
			<path class="st40" d="M148.6,287.8c0,0-0.3-1.9,1.7-1.4C149.3,286.6,148.8,286.9,148.6,287.8z"/>
		</g>
		<g>
			<ellipse class="st39" cx="139.4" cy="292.6" rx="1.9" ry="1.9"/>
			<path class="st40" d="M138.3,293c0,0-0.3-1.9,1.7-1.4C139.1,291.8,138.6,292,138.3,293z"/>
		</g>
		<g>
			<circle class="st39" cx="165.1" cy="179.7" r="1.9"/>
			<path class="st40" d="M164,180.1c0,0-0.3-1.9,1.7-1.4C164.7,178.9,164.2,179.2,164,180.1z"/>
		</g>
		<g>
			<ellipse class="st39" cx="267.6" cy="138.7" rx="1.9" ry="1.9"/>
			<path class="st40" d="M266.5,139.1c0,0-0.3-2,1.7-1.4C267.3,137.9,266.8,138.2,266.5,139.1z"/>
		</g>
		<g>
			<circle class="st39" cx="283" cy="133.6" r="1.9"/>
			<path class="st40" d="M281.9,134c0,0-0.3-1.9,1.7-1.4C282.7,132.8,282.2,133.1,281.9,134z"/>
		</g>
		<g>
			<circle class="st39" cx="349.7" cy="184.9" r="1.9"/>
			<path class="st40" d="M348.6,185.3c0,0-0.3-2,1.7-1.4C349.3,184.1,348.8,184.3,348.6,185.3z"/>
		</g>
		<g>
			<circle class="st39" cx="365.1" cy="215.6" r="1.9"/>
			<path class="st40" d="M364,216c0,0-0.3-1.9,1.7-1.4C364.7,214.8,364.2,215.1,364,216z"/>
		</g>
		<g>
			<ellipse class="st39" cx="349.7" cy="190" rx="1.9" ry="1.9"/>
			<path class="st40" d="M348.6,190.4c0,0-0.3-1.9,1.7-1.4C349.3,189.2,348.8,189.5,348.6,190.4z"/>
		</g>
		<g>
			<circle class="st39" cx="329.2" cy="159.2" r="1.9"/>
			<path class="st40" d="M328.1,159.6c0,0-0.3-1.9,1.7-1.4C328.8,158.4,328.3,158.7,328.1,159.6z"/>
		</g>
		<g>
			<ellipse class="st39" cx="303.5" cy="149" rx="1.9" ry="1.9"/>
			<path class="st40" d="M302.4,149.4c0,0-0.3-2,1.7-1.4C303.2,148.2,302.7,148.4,302.4,149.4z"/>
		</g>
		<g>
			<circle class="st39" cx="375.3" cy="231" r="1.9"/>
			<path class="st40" d="M374.2,231.4c0,0-0.3-1.9,1.7-1.4C375,230.2,374.5,230.5,374.2,231.4z"/>
		</g>
		<g>
			<circle class="st39" cx="354.8" cy="210.5" r="1.9"/>
			<path class="st40" d="M353.7,210.9c0,0-0.3-2,1.7-1.4C354.4,209.7,354,210,353.7,210.9z"/>
		</g>
		<g>
			<circle class="st39" cx="375.3" cy="251.5" r="1.9"/>
			<path class="st40" d="M374.2,251.9c0,0-0.3-1.9,1.7-1.4C375,250.7,374.5,251,374.2,251.9z"/>
		</g>
		<g>
			<ellipse class="st39" cx="334.3" cy="164.4" rx="1.9" ry="1.9"/>
			<path class="st40" d="M333.2,164.8c0,0-0.3-1.9,1.7-1.4C333.9,163.6,333.4,163.8,333.2,164.8z"/>
		</g>
		<g>
			<ellipse class="st39" cx="349.7" cy="231" rx="1.9" ry="1.9"/>
			<path class="st40" d="M348.6,231.4c0,0-0.3-1.9,1.7-1.4C349.3,230.2,348.8,230.5,348.6,231.4z"/>
		</g>
		<g>
			<circle class="st39" cx="365.1" cy="251.5" r="1.9"/>
			<path class="st40" d="M364,251.9c0,0-0.3-1.9,1.7-1.4C364.7,250.7,364.2,251,364,251.9z"/>
		</g>
		<g>
			<ellipse class="st39" cx="324" cy="256.7" rx="1.9" ry="1.9"/>
			<path class="st40" d="M323,257.1c0,0-0.3-2,1.7-1.4C323.7,255.9,323.2,256.1,323,257.1z"/>
		</g>
		<g>
			<circle class="st39" cx="344.5" cy="261.8" r="1.9"/>
			<path class="st40" d="M343.5,262.2c0,0-0.3-1.9,1.7-1.4C344.2,261,343.7,261.3,343.5,262.2z"/>
		</g>
		<g>
			<path class="st39" d="M346.4,287.4c0,1.1-0.9,1.9-1.9,1.9c-1,0-1.9-0.8-1.9-1.9c0-1,0.9-1.9,1.9-1.9
				C345.6,285.5,346.4,286.4,346.4,287.4z"/>
			<path class="st40" d="M343.5,287.8c0,0-0.3-1.9,1.7-1.4C344.2,286.6,343.7,286.9,343.5,287.8z"/>
		</g>
		<g>
			<path class="st39" d="M319.9,339.5c0,1-0.8,1.8-1.8,1.8c-1,0-1.7-0.8-1.7-1.8c0-1,0.8-1.7,1.7-1.7
				C319.1,337.7,319.9,338.5,319.9,339.5z"/>
			<path class="st40" d="M317.1,339.9c0,0-0.3-1.8,1.5-1.3C317.8,338.8,317.4,339,317.1,339.9z"/>
		</g>
		<g>
			<ellipse class="st39" cx="318.1" cy="365.1" rx="1.8" ry="1.8"/>
			<path class="st40" d="M317.1,365.5c0,0-0.3-1.8,1.5-1.3C317.8,364.4,317.4,364.6,317.1,365.5z"/>
		</g>
		<g>
			<path class="st39" d="M345.5,319c0,1-0.8,1.8-1.8,1.8c-1,0-1.7-0.8-1.7-1.8c0-1,0.8-1.8,1.7-1.8C344.7,317.2,345.5,318,345.5,319
				z"/>
			<path class="st40" d="M342.8,319.4c0,0-0.3-1.8,1.5-1.3C343.4,318.2,343,318.5,342.8,319.4z"/>
		</g>
		<g>
			<circle class="st39" cx="364.3" cy="324.1" r="1.8"/>
			<path class="st40" d="M363.3,324.5c0,0-0.3-1.8,1.5-1.3C364,323.4,363.5,323.6,363.3,324.5z"/>
		</g>
		<g>
			<path class="st39" d="M299.4,339.5c0,1-0.8,1.8-1.8,1.8c-1,0-1.8-0.8-1.8-1.8c0-1,0.8-1.7,1.8-1.7
				C298.6,337.7,299.4,338.5,299.4,339.5z"/>
			<path class="st40" d="M296.6,339.9c0,0-0.3-1.8,1.5-1.3C297.3,338.8,296.8,339,296.6,339.9z"/>
		</g>
		<g>
			<circle class="st39" cx="297.6" cy="349.7" r="1.8"/>
			<path class="st40" d="M296.6,350.1c0,0-0.3-1.8,1.5-1.3C297.3,349,296.8,349.3,296.6,350.1z"/>
		</g>
		<g>
			<circle class="st39" cx="256.6" cy="380.5" r="3.2"/>
			<path class="st40" d="M254.8,381.2c0,0-0.5-3.2,2.8-2.3C256,379.2,255.2,379.6,254.8,381.2z"/>
		</g>
		<g>
			<path class="st39" d="M311,366.5c0,2.2-1.8,3.9-4,3.9c-2.2,0-4-1.8-4-3.9c0-2.2,1.8-4,4-4C309.2,362.5,311,364.3,311,366.5z"/>
			<path class="st40" d="M304.8,367.3c0,0-0.7-4.1,3.5-2.9C306.3,364.8,305.2,365.3,304.8,367.3z"/>
		</g>
	</g>
	<g>
		
			<linearGradient id="SVGID_30_" gradientUnits="userSpaceOnUse" x1="-469.4256" y1="656.5794" x2="-475.7253" y2="662.4745" gradientTransform="matrix(-0.9799 0.1995 -0.1996 -0.9799 -123.4117 1071.704)">
			<stop  offset="0" style="stop-color:#808080"/>
			<stop  offset="0.1318" style="stop-color:#868380"/>
			<stop  offset="0.3003" style="stop-color:#958E82"/>
			<stop  offset="0.4887" style="stop-color:#B09E84"/>
			<stop  offset="0.6899" style="stop-color:#D4B587"/>
			<stop  offset="0.8884" style="stop-color:#FFD08A"/>
		</linearGradient>
		<polygon class="st41" points="199.6,332.3 206.2,325.2 215,329.1 209.9,339.2 		"/>
		<path class="st42" d="M146.3,377.6c0,0,13.2,10.4,17.5,10.5c7.5-9.9,40.9-50.7,40.9-50.7l-5.2-5.1l-45,17.4c0,0,1.2,5.6,5.3,12.2
			C161.7,365.6,150.8,380,146.3,377.6z"/>
		<path class="st43" d="M194.1,403.7c0,0-15.2-7.2-17.2-11c5.5-11.1,27.2-59.2,27.2-59.2l6.9,2.4l4.4,48c0,0-5.5,1.4-13.3,0.6
			C197.9,384.6,190,400.7,194.1,403.7z"/>
		<path class="st44" d="M142.2,429.8c7.7,5.1,17.9,3.3,22.8-4.1c1.5-2.3,7.4-12.6,14.5-25.7l-16.7,3.4l-4.8-23.4
			c-10.7,13.3-19.3,24.6-21,27.2C132.2,414.6,134.5,424.7,142.2,429.8z"/>
		
			<linearGradient id="SVGID_31_" gradientUnits="userSpaceOnUse" x1="-471.623" y1="657.1982" x2="-389.9971" y2="577.4955" gradientTransform="matrix(-0.9799 0.1995 -0.1996 -0.9799 -123.4117 1071.704)">
			<stop  offset="0" style="stop-color:#A6A6A6"/>
			<stop  offset="1" style="stop-color:#EDEDED"/>
		</linearGradient>
		<path class="st45" d="M144.1,427.5c7.7,5.1,17.9,3.3,22.8-4.1c3.7-5.6,32.8-57.6,43-84.2c0.6-1.9-1.9-4.7-3.8-5.8
			c-1.8-1-5.5-1.9-6.5-1c-20.5,19.8-56.9,66.9-60.6,72.5C134,412.2,136.3,422.4,144.1,427.5z"/>
		
			<linearGradient id="SVGID_32_" gradientUnits="userSpaceOnUse" x1="-447.1842" y1="633.3206" x2="-394.3782" y2="581.7588" gradientTransform="matrix(-0.9799 0.1995 -0.1996 -0.9799 -123.4117 1071.704)">
			<stop  offset="0" style="stop-color:#BDBDBD"/>
			<stop  offset="1" style="stop-color:#FFFFFF"/>
		</linearGradient>
		<path class="st46" d="M144,408c2.4-3.6,26-34.1,39.2-46.9c0.7-0.6,3.1,0,4.2,0.7c1.2,0.7,2.9,2.5,2.5,3.8
			c-6.6,17.2-25.4,50.8-27.8,54.4c-3.2,4.8-9.8,6-14.8,2.7C142.3,419.3,140.8,412.7,144,408z M149.2,419.7c3.9,2.6,9.1,1.6,11.5-2.1
			c1.9-2.9,16.6-29.1,21.7-42.5c0.3-0.9-1-2.4-1.9-2.9c-0.9-0.5-2.8-1-3.3-0.5c-10.3,10-28.7,33.8-30.6,36.6
			C144.2,412,145.3,417.1,149.2,419.7z"/>
	</g>
</g>
</svg>
