<?xml version="1.0" encoding="utf-8"?>
<!-- Generator: Adobe Illustrator 21.1.0, SVG Export Plug-In . SVG Version: 6.00 Build 0)  -->
<svg version="1.1" id="Layer_1" xmlns="http://www.w3.org/2000/svg" xmlns:xlink="http://www.w3.org/1999/xlink" x="0px" y="0px"
	 viewBox="0 0 48 48" style="enable-background:new 0 0 48 48;" xml:space="preserve">
<style type="text/css">
	.st0{fill:#601A1A;}
</style>
<g>
	<g>
		<path class="st0" d="M13.4,43.7c-2.4,0-4.1-2-4.1-4.9V9.2c0-2.9,1.7-4.9,4.1-4.9c0.9,0,1.9,0.3,2.9,0.9L39.6,20
			c1.7,1,2.7,2.4,2.7,4s-1,3-2.7,4L16.3,42.8C15.3,43.4,14.3,43.7,13.4,43.7z M13.4,6.7c-1.5,0-1.7,1.7-1.7,2.5v29.6
			c0,0.8,0.2,2.5,1.7,2.5c0.5,0,1.1-0.2,1.7-0.5L38.3,26c1-0.6,1.6-1.3,1.6-2s-0.6-1.4-1.5-2L15.1,7.2C14.5,6.9,13.9,6.7,13.4,6.7z"
			/>
	</g>
	<g>
		<g>
			<path class="st0" d="M25.3,31.8c-0.2,0-0.4-0.1-0.5-0.3c-0.2-0.3-0.1-0.6,0.2-0.8l0.3-0.2c0.3-0.2,0.6-0.1,0.8,0.2
				c0.2,0.3,0.1,0.6-0.2,0.8l-0.3,0.2C25.5,31.7,25.4,31.8,25.3,31.8z"/>
		</g>
		<g>
			<path class="st0" d="M16.5,37.3c-0.2,0-0.4-0.1-0.5-0.3c-0.2-0.3-0.1-0.6,0.2-0.8l6.7-4.2c0.3-0.2,0.6-0.1,0.8,0.2
				c0.2,0.3,0.1,0.6-0.2,0.8l-6.7,4.2C16.7,37.2,16.6,37.3,16.5,37.3z"/>
		</g>
	</g>
</g>
</svg>
