<svg id="Layer_1" data-name="Layer 1" xmlns="http://www.w3.org/2000/svg" viewBox="0 0 44.62 44.77"><defs><style>.cls-1,.cls-2{fill:#601a1a;stroke-miterlimit:10;stroke-width:0.28px;}.cls-1,.cls-2,.cls-3,.cls-4{stroke:#601a1a;}.cls-1{fill-rule:evenodd;}.cls-3,.cls-4{fill:none;stroke-miterlimit:22.93;}.cls-3{stroke-width:0.99px;}.cls-4{stroke-width:1.42px;}</style></defs><title>playlist</title><path class="cls-1" d="M14.12,26a3.28,3.28,0,0,1,3.28,3.33,3.32,3.32,0,0,1-3.23,3.23,3.28,3.28,0,1,1,0-6.56m-.85-1.66a5,5,0,1,1-4.09,4.09A5,5,0,0,1,13.28,24.35Z" transform="translate(-1.69 -1.62)"/><path class="cls-2" d="M15.63,29a.53.53,0,0,1-.16,1.05l-1.05-.16-.16,1a.53.53,0,0,1-1.05-.16l.16-1.05-1-.16a.53.53,0,0,1,.16-1.05l1.05.16.16-1a.53.53,0,1,1,1.05.16l-.16,1.05Z" transform="translate(-1.69 -1.62)"/><path class="cls-2" d="M34.46,30.35a.53.53,0,1,1-.77.73L33,30.3l-.77.72a.53.53,0,0,1-.73-.77l.78-.73-.72-.77a.53.53,0,0,1,.77-.73l.73.77.77-.72a.53.53,0,1,1,.73.77l-.77.73Z" transform="translate(-1.69 -1.62)"/><path class="cls-1" d="M33,23a6.56,6.56,0,1,1-6.56,6.56A6.56,6.56,0,0,1,33,23m-.75,3.37a3.29,3.29,0,0,1,3.95,3.95,3.25,3.25,0,0,1-2.45,2.45,3.29,3.29,0,0,1-3.95-3.95A3.25,3.25,0,0,1,32.24,26.35Z" transform="translate(-1.69 -1.62)"/><path class="cls-1" d="M10.49,13.46a1.68,1.68,0,1,1-1.68,1.68,1.68,1.68,0,0,1,1.68-1.68m0,1.12a.56.56,0,1,1-.56.56A.56.56,0,0,1,10.49,14.58Z" transform="translate(-1.69 -1.62)"/><path class="cls-1" d="M37.81,13.65a1.68,1.68,0,1,1-1.68,1.68,1.68,1.68,0,0,1,1.68-1.68m0,1.12a.56.56,0,1,1-.56.56A.56.56,0,0,1,37.81,14.77Z" transform="translate(-1.69 -1.62)"/><path class="cls-3" d="M9.4,29.75c-.7-3.27-.71-15.35-.08-15.14.7-.45.34-.71,1.21-.79s27.53.2,27.53.2l1,.9a78.56,78.56,0,0,1,.22,15.34" transform="translate(-1.69 -1.62)"/><rect class="cls-4" x="0.71" y="0.71" width="43.2" height="43.35" rx="4.2" ry="4.2"/></svg>