<svg id="Layer_1" data-name="Layer 1" xmlns="http://www.w3.org/2000/svg" viewBox="0 0 64.72 16.65"><defs><style>.cls-1{fill:#a3440e;}.cls-2{fill:#c24700;}.cls-3{fill:#8c3a0c;}.cls-4{fill:#edd493;}.cls-5{fill:#dbbe72;}.cls-6{fill:#e6c77a;}.cls-7{fill:#d94f00;}</style></defs><title>save</title><polygon class="cls-1" points="47.27 16.46 51.49 13.03 51.69 3.72 46.9 0 45.04 0.02 6.04 0.15 1.92 0.19 2.05 16.65 6.19 16.61 45.19 16.48 47.27 16.46"/><polygon class="cls-2" points="47.27 16.46 51.32 12.61 45.15 12.65 6.15 12.65 2.02 12.68 2.05 16.65 6.19 16.61 45.19 16.48 47.27 16.46"/><polygon class="cls-3" points="51.36 3.95 46.87 0 45.04 0.02 6.04 0.15 1.92 0.19 1.95 4.01 6.07 3.99 45.07 3.98 51.36 3.95"/><path class="cls-2" d="M6,11.89h4.43c2.92,0,36.24-.23,36.91-.56l-37.21-.06L6,11.28C6,11.43,6,11.75,6,11.89Z" transform="translate(-4.06 -7.27)"/><path class="cls-4" d="M51.15,23.73c0-3.56,3.76-3.85,3.76-3.85s-3.86-.1-3.9-4.55,3.83-4.11,3.83-4.11-3.89-.28-3.92-4c1.29,0,17.85,8.14,17.85,8.14S53,23.72,51.15,23.73Z" transform="translate(-4.06 -7.27)"/><path class="cls-5" d="M54.85,11.22S51,10.94,50.92,7.27c1.29,0,17.85,8.14,17.85,8.14l-.14.07C62.78,13.88,54.85,11.22,54.85,11.22Z" transform="translate(-4.06 -7.27)"/><path class="cls-6" d="M62.42,17.64v-.39S52.06,21,51,15.34c.07.94.16,4.34,3.7,4.53C57,19.18,62.42,17.64,62.42,17.64Z" transform="translate(-4.06 -7.27)"/><path class="cls-1" d="M62.38,12.32c3.48,1.67,6.39,3.1,6.39,3.1s-2.89,1.53-6.34,3.27Z" transform="translate(-4.06 -7.27)"/><path class="cls-3" d="M62.39,13.13l6.39,2.29S66,15,62.4,14.63Z" transform="translate(-4.06 -7.27)"/><path class="cls-7" d="M62.41,16c2.47-.17,4.6-.26,4.6-.26s-1.86.59-4.59,1.54Z" transform="translate(-4.06 -7.27)"/><polygon class="cls-4" points="4.01 12.62 2.13 16.65 0.07 12.39 0 4.2 1.99 0.19 4.04 3.96 4.01 12.62"/><path class="cls-3" d="M5.82,18.26c-.21,0-.41-.31-.56-.83.16,1,.44,1.71.75,1.71.48,0,.86-1.66.84-3.69a11,11,0,0,0-.34-2.85,13.49,13.49,0,0,1,.15,2C6.68,16.6,6.3,18.25,5.82,18.26Z" transform="translate(-4.06 -7.27)"/><path class="cls-1" d="M5.95,11.77c-.48,0-.86,1.66-.84,3.69a13.49,13.49,0,0,0,.15,2c.16.52.35.83.56.83.48,0,.86-1.66.84-3.69a13.49,13.49,0,0,0-.15-2C6.35,12.08,6.16,11.76,5.95,11.77Z" transform="translate(-4.06 -7.27)"/><polygon class="cls-5" points="2.17 16.64 0.07 12.39 0 4.2 1.99 0.19 0.32 4.27 0.37 12.38 2.17 16.64"/></svg>