<?xml version="1.0" encoding="utf-8"?>
<!-- Generator: Adobe Illustrator 21.1.0, SVG Export Plug-In . SVG Version: 6.00 Build 0)  -->
<svg version="1.1" id="Layer_1" xmlns="http://www.w3.org/2000/svg" xmlns:xlink="http://www.w3.org/1999/xlink" x="0px" y="0px"
	 viewBox="0 0 192 119" style="enable-background:new 0 0 192 119;" xml:space="preserve">
<style type="text/css">
	.st0{fill:#FFFFFF;}
</style>
<g>
	<g>
		<path class="st0" d="M154.4,4.6c-0.7-1.2-1.8-2.1-3.2-2.4l-7.8-2c-1.4-0.4-2.8-0.1-4,0.6c-1.2,0.7-2.1,1.8-2.4,3.2l-11.8,45.5l0,0
			c-0.1,0.2-0.1,0.4,0,0.6l4.3,15.5l0,0c0.1,0.2,0.2,0.4,0.3,0.5c0.5,0.5,1.3,0.5,1.7,0l11.2-11.4c0.2-0.2,0.3-0.4,0.4-0.6
			l11.8-45.5C155.3,7.2,155,5.8,154.4,4.6z M150.1,17.2l-4.2-1.1l-4.8-1.2l-4.2-1.1l0.6-2.4l13.2,3.4L150.1,17.2z"/>
	</g>
	<path class="st0" d="M163.4,18.7c-0.3-0.1-2.8-1.4-6.8-3l-1.7,6.4c1.7,0.7,3.1,1.3,4.1,1.7V110c-5.7-1.7-16.8-4.6-28.2-4.6
		c-11.8,0-25,3.1-31.3,4.8V23.7c4-2,15.2-7,28.9-7c0.7,0,1.3,0,2,0l1.7-6.5c-1.2-0.1-2.4-0.1-3.6-0.1c-16.1,0-28.9,6.2-32.4,8.1
		c-3.7-1.8-17.9-8.1-34.1-8.1c-18.6,0-32.8,8.3-33.4,8.6l-1.6,0.9v99.1l3.9-1.2c0.2-0.1,18.4-5.6,33.5-5.6c12.6,0,25.3,3.9,29.1,5.1
		l2.5,0.9l2.7-0.8c4.4-1.3,19.4-5.2,32.2-5.2c15,0,30.1,5.5,30.3,5.5l4,1.5V19.6L163.4,18.7z M64.3,105.4c-11.8,0-25,3.1-31.3,4.8
		V23.7c4-2,15.2-7,28.9-7c13.8,0,26.2,5,30.7,7.1V110C86.8,108.2,75.7,105.4,64.3,105.4z"/>
</g>
</svg>
