<?xml version="1.0" encoding="utf-8"?>
<!-- Generator: Adobe Illustrator 21.1.0, SVG Export Plug-In . SVG Version: 6.00 Build 0)  -->
<svg version="1.1" id="Layer_1" xmlns="http://www.w3.org/2000/svg" xmlns:xlink="http://www.w3.org/1999/xlink" x="0px" y="0px"
	 viewBox="0 0 12.9 62.2" style="enable-background:new 0 0 12.9 62.2;" xml:space="preserve">
<g>
	<path d="M3.1,57.3h4.8v0.4H3.6v3h4.4v0.4H3.1V57.3z"/>
	<path d="M5.5,50.5C7,50.5,8,51.4,8,52.7c0,0.8-0.4,1.4-1.1,1.8h2.9v0.4H3.1v-0.4h1.1c-0.7-0.3-1.2-1-1.2-1.8
		C3.1,51.4,4.1,50.5,5.5,50.5z M5.5,50.9c-1.2,0-2,0.8-2,1.8s0.8,1.8,2,1.8s2-0.8,2-1.8S6.7,50.9,5.5,50.9z"/>
	<path d="M5.7,44.7v3.8c1.1,0,1.9-0.8,1.9-1.9c0-0.6-0.2-1.1-0.7-1.4L7.2,45C7.7,45.4,8,46,8,46.7c0,1.3-1,2.3-2.4,2.3
		S3.1,48,3.1,46.8c0-1.2,1-2.1,2.4-2.1C5.6,44.7,5.6,44.7,5.7,44.7z M5.3,48.5v-3.4c-1,0.1-1.8,0.8-1.8,1.7
		C3.5,47.8,4.2,48.5,5.3,48.5z"/>
	<path d="M7.5,38.7h1.6v0.4H7.9v4.2h1.2v0.4H7.5v-0.3c0-0.7-1.4-0.8-2.8-0.8l-1.6-0.1v-3.1h4.4V38.7z M7.5,42.8v-3h-4v2.3l1.2,0.1
		C5.9,42.2,7.2,42.3,7.5,42.8z"/>
	<path d="M3.1,32.6v-0.4h4.8v0.4H3.1z M6.4,33.4c1,0,1.6,0.6,1.6,1.8l0,1.6H3.1v-0.4h1.7l0-1.3C4.9,34,5.4,33.4,6.4,33.4z M6.4,33.8
		c-0.8,0-1.1,0.5-1.2,1.4l0,1.2h2.3l0-1.2C7.6,34.3,7.2,33.8,6.4,33.8z"/>
	<path d="M7.5,25.6h1.6V26H7.9v4.2h1.2v0.4H7.5v-0.3c0-0.7-1.4-0.8-2.8-0.8l-1.6-0.1v-3.1h4.4V25.6z M7.5,29.7v-3h-4V29l1.2,0.1
		C5.9,29.1,7.2,29.2,7.5,29.7z"/>
	<path d="M3.1,20.2l5.4,2.3c0.9,0.4,1.2,0.8,1.2,1.4c0,0.4-0.1,0.8-0.4,1L9,24.6c0.3-0.2,0.4-0.5,0.4-0.8c0-0.4-0.2-0.7-0.9-1
		l-0.6-0.2l-4.8,2v-0.4l4.3-1.8l-4.3-1.8V20.2z"/>
	<path d="M7.5,11.9H9v0.4H7.9v6.2H3.1v-0.4h4.4v-2.3H3.1v-0.4h4.4V13H3.1v-0.4h4.4V11.9z"/>
	<path d="M4.9,7h3v0.4H7.1C7.6,7.7,8,8.2,8,9c0,1-0.6,1.6-1.4,1.6c-0.7,0-1.3-0.4-1.3-1.6V7.4H4.9C4,7.4,3.5,7.9,3.5,8.7
		c0,0.6,0.2,1.2,0.6,1.5l-0.3,0.2C3.4,10,3.1,9.4,3.1,8.7C3.1,7.6,3.7,7,4.9,7z M6.5,7.4H5.6v1.5c0,0.9,0.4,1.2,1,1.2
		c0.6,0,1-0.4,1-1.2C7.6,8.2,7.2,7.7,6.5,7.4z"/>
	<path d="M3.1,1.4h4.8v0.4H6.3v1.5c0,0.1,0,0.2,0,0.2l1.7,1.1V5L6.2,3.9C6,4.6,5.6,5,4.7,5C3.7,5,3.1,4.3,3.1,3.2V1.4z M5.9,3.2V1.8
		H3.5v1.4c0,0.9,0.4,1.4,1.2,1.4C5.6,4.6,5.9,4.1,5.9,3.2z"/>
</g>
</svg>
