<?xml version="1.0" encoding="utf-8"?>
<!-- Generator: Adobe Illustrator 21.1.0, SVG Export Plug-In . SVG Version: 6.00 Build 0)  -->
<svg version="1.1" id="Layer_1" xmlns="http://www.w3.org/2000/svg" xmlns:xlink="http://www.w3.org/1999/xlink" x="0px" y="0px"
	 viewBox="0 0 12.9 62.2" style="enable-background:new 0 0 12.9 62.2;" xml:space="preserve">
<g>
	<path d="M5.5,58.3c-1.4,0-2.4-0.9-2.4-2.2c0-0.7,0.3-1.3,0.9-1.7l0.2,0.3c-0.5,0.3-0.7,0.8-0.7,1.4c0,1,0.8,1.8,2,1.8s2-0.8,2-1.8
		c0-0.5-0.2-1-0.7-1.4l0.2-0.3c0.6,0.4,0.9,1,0.9,1.7C8,57.4,7,58.3,5.5,58.3z"/>
	<path d="M3.1,49.3h4.8v0.4H3.6V52l1.3,0.1C6.5,52.1,8,52.3,8,53.2c0,0.1,0,0.2-0.1,0.4l-0.4,0c0-0.1,0-0.1,0-0.2
		c0-0.8-1.4-0.8-2.8-0.9l-1.7-0.1V49.3z"/>
	<path d="M5.7,43.1v3.8c1.1,0,1.9-0.8,1.9-1.9c0-0.6-0.2-1.1-0.7-1.4l0.3-0.2C7.7,43.7,8,44.4,8,45c0,1.3-1,2.3-2.4,2.3
		s-2.4-0.9-2.4-2.1c0-1.2,1-2.1,2.4-2.1C5.6,43.1,5.6,43.1,5.7,43.1z M5.3,46.9v-3.4c-1,0.1-1.8,0.8-1.8,1.7
		C3.5,46.1,4.2,46.8,5.3,46.9z"/>
	<path d="M7.5,37.1h1.6v0.4H7.9v4.2h1.2V42H7.5v-0.3c0-0.7-1.4-0.8-2.8-0.8l-1.6-0.1v-3.1h4.4V37.1z M7.5,41.1v-3h-4v2.3l1.2,0.1
		C5.9,40.6,7.2,40.7,7.5,41.1z"/>
	<path d="M3.1,31.6l5.4,2.3c0.9,0.4,1.2,0.8,1.2,1.4c0,0.4-0.1,0.8-0.4,1L9,36c0.3-0.2,0.4-0.5,0.4-0.8c0-0.4-0.2-0.7-0.9-1L7.9,34
		l-4.8,2v-0.4l4.3-1.8L3.1,32V31.6z"/>
	<path d="M5.5,24.1C7,24.1,8,25,8,26.3c0,1.2-0.9,2.1-2.3,2.1v1.1h2.2v0.4H3.1v-0.4h2.1v-1.1c-1.3-0.1-2.2-1-2.2-2.1
		C3.1,25,4.1,24.1,5.5,24.1z M5.5,24.5c-1.2,0-2,0.7-2,1.7s0.8,1.7,2,1.7c1.2,0,2-0.7,2-1.7S6.7,24.5,5.5,24.5z"/>
	<path d="M7.5,15.5H9v0.4H7.9v6.2H3.1v-0.4h4.4v-2.3H3.1v-0.4h4.4v-2.3H3.1v-0.4h4.4V15.5z"/>
	<path d="M4.9,10.6h3V11H7.1C7.6,11.3,8,11.8,8,12.6c0,1-0.6,1.6-1.4,1.6c-0.7,0-1.3-0.4-1.3-1.6V11H4.9c-0.9,0-1.4,0.4-1.4,1.3
		c0,0.6,0.2,1.2,0.6,1.5L3.8,14c-0.4-0.4-0.7-1.1-0.7-1.8C3.1,11.2,3.7,10.6,4.9,10.6z M6.5,11H5.6v1.5c0,0.9,0.4,1.2,1,1.2
		c0.6,0,1-0.4,1-1.2C7.6,11.8,7.2,11.3,6.5,11z"/>
	<path d="M3.1,5h4.8v0.4H6.3v1.5c0,0.1,0,0.2,0,0.2l1.7,1.1v0.5L6.2,7.5C6,8.2,5.6,8.6,4.7,8.6c-1.1,0-1.6-0.7-1.6-1.8V5z M5.9,6.8
		V5.4H3.5v1.4c0,0.9,0.4,1.4,1.2,1.4C5.6,8.2,5.9,7.7,5.9,6.8z"/>
</g>
</svg>
