<?xml version="1.0" encoding="utf-8"?>
<!-- Generator: Adobe Illustrator 21.1.0, SVG Export Plug-In . SVG Version: 6.00 Build 0)  -->
<svg version="1.1" id="Layer_1" xmlns="http://www.w3.org/2000/svg" xmlns:xlink="http://www.w3.org/1999/xlink" x="0px" y="0px"
	 viewBox="0 0 12.9 48" style="enable-background:new 0 0 12.9 48;" xml:space="preserve">
<g>
	<path d="M6.4,46.1c-2.5,0-4.3-1.5-4.3-3.6c0-1,0.4-1.8,1.2-2.5l0.4,0.3c-0.7,0.6-1,1.3-1,2.1c0,1.8,1.6,3.1,3.7,3.1
		c2.1,0,3.7-1.3,3.7-3.1c0-0.8-0.3-1.5-1-2.1l0.4-0.3c0.8,0.6,1.2,1.5,1.2,2.5C10.7,44.6,8.9,46.1,6.4,46.1z"/>
	<path d="M2.2,32.8h8.4v0.5H2.8v4.7h7.9v0.5H2.2V32.8z"/>
	<path d="M2.2,30.3v-0.5h7.4l-7.4-4.7v-0.4h8.4v0.5H3.3l7.4,4.7v0.4H2.2z"/>
	<path d="M6.4,22.8c-2.5,0-4.3-1.5-4.3-3.6c0-1,0.4-1.9,1.2-2.5l0.4,0.3c-0.7,0.6-1,1.3-1,2.1c0,1.8,1.6,3.1,3.7,3.1
		c2.1,0,3.7-1.3,3.7-3.1c0-0.8-0.3-1.5-1-2.1l0.4-0.3c0.8,0.6,1.2,1.5,1.2,2.5C10.7,21.3,8.9,22.8,6.4,22.8z"/>
	<path d="M6.4,15.9c-2.4,0-4.3-1.5-4.3-3.6c0-2,1.8-3.6,4.3-3.6s4.3,1.5,4.3,3.6C10.7,14.4,8.9,15.9,6.4,15.9z M6.4,9.3
		c-2.1,0-3.7,1.3-3.7,3.1c0,1.8,1.6,3.1,3.7,3.1s3.7-1.3,3.7-3.1C10.1,10.6,8.6,9.3,6.4,9.3z"/>
	<path d="M6.7,4.7v1.7h4v0.5H2.2V6.4h3.9V4.7L2.2,2.3V1.7l4.1,2.6l4.3-2.8v0.6L6.7,4.7z"/>
</g>
</svg>
