<?xml version="1.0" encoding="utf-8"?>
<!-- Generator: Adobe Illustrator 21.1.0, SVG Export Plug-In . SVG Version: 6.00 Build 0)  -->
<svg version="1.1" id="Layer_1" xmlns="http://www.w3.org/2000/svg" xmlns:xlink="http://www.w3.org/1999/xlink" x="0px" y="0px"
	 viewBox="0 0 192 119" style="enable-background:new 0 0 192 119;" xml:space="preserve">
<style type="text/css">
	.st0{fill:#FFFFFF;}
</style>
<g>
	<path class="st0" d="M7.4,37c5.4,0,10.6,0,15.8,0c5.2,0,10.4,0,15.9,0c0-0.7,0-1.3,0-1.9c0-4.5,0-9.1,0-13.6
		c0-6.1,4.1-10.5,10.2-11c0.5,0,1.1,0,1.6,0c30.2,0,60.4,0,90.7,0c1.6,0,3.3,0.2,4.8,0.7c4.3,1.4,7,5.3,7.1,10.2
		c0.1,4.5,0.1,9,0.1,13.6c0,0.6,0,1.2,0,2c0.7,0,1.4,0,2,0c9.1,0,18.1,0,27.2,0c1.5,0,1.9,0.4,1.9,1.9c0,23.2,0,46.3,0,69.5
		c0,0.5,0,1.1,0,1.8c-0.8,0-1.5,0.1-2.2,0.1c-57.7,0-115.4,0-173.1,0c-1.6,0-2.1-0.4-2.1-2c0.1-23.1,0-46.1,0-69.2
		C7.4,38.5,7.4,37.8,7.4,37z M149.8,101.6c14.8,0,26.8-12,26.7-26.9c0-14.8-12.1-26.8-26.9-26.7c-14.8,0-26.7,12-26.7,26.9
		C123,89.8,134.9,101.7,149.8,101.6z M69.3,74.8C69.3,60,57.3,48,42.5,48c-14.8,0-26.8,12.1-26.8,26.9c0,14.8,12.1,26.8,26.9,26.7
		C57.4,101.6,69.4,89.7,69.3,74.8z M142.6,37c0-5.8,0-11.4,0-17c-31,0-61.8,0-92.6,0c0,5.7,0,11.3,0,17C80.9,37,111.7,37,142.6,37z
		 M116.1,48.4c-13.4,0-26.6,0-39.9,0c0,8.9,0,17.6,0,26.4c13.3,0,26.5,0,39.9,0C116.1,66,116.1,57.3,116.1,48.4z"/>
</g>
</svg>
